<svg aria-hidden="true" style="position: absolute; width: 0; height: 0; overflow: hidden;" version="1.1" xmlns="http://www.w3.org/2000/svg" xmlns:xlink="http://www.w3.org/1999/xlink">
<defs>
<symbol id="icon-link" viewBox="0 0 32 32">
<path fill="#fff" style="fill: var(--color1, #fff)" d="M31.994 2.308c0.001 0.060 0.002 0.12 0.002 0.179 0 9.001 0 18.001 0.004 27.006 0 0.588-0.101 1.13-0.47 1.596-0.458 0.58-1.049 0.886-1.788 0.911h-27.369c-0.999 0-1.729-0.454-2.162-1.352-0.097-0.197-0.136-0.426-0.174-0.651v0c-0.006-0.038-0.013-0.076-0.020-0.114-0.022-0.114-0.018-0.235-0.015-0.355 0.001-0.043 0.002-0.086 0.002-0.128v-13.419c0-1.129 0-2.258 0.001-3.386 0.001-3.386 0.002-6.773-0.005-10.159 0-0.685 0.172-1.285 0.672-1.772 0.432-0.42 0.957-0.647 1.562-0.664h27.39c0.806 0 1.457 0.302 1.944 0.941 0.265 0.349 0.411 0.748 0.424 1.189 0 0.059 0.001 0.119 0.002 0.179zM9.32 27.275c0.042-0.040 0.042-0.124 0.042-0.295 0-2.479 0-4.963 0.004-7.446v-7.506c0-0.159 0-0.238-0.040-0.277s-0.115-0.038-0.267-0.038c-0.342 0-0.684 0-1.027 0.001h-0c-1.027 0.001-2.053 0.002-3.080-0.005-0.204-0.004-0.27 0.055-0.27 0.273 0.004 5.018 0.004 10.041 0 15.059 0 0.222 0.061 0.277 0.266 0.277 1.027-0.006 2.053-0.006 3.080-0.005 0.342 0 0.684 0.001 1.027 0.001 0.149 0 0.226 0 0.265-0.038zM6.634 9.366c-1.503 0.004-2.732-1.225-2.732-2.73s1.212-2.717 2.707-2.734c1.421-0.012 2.756 1.106 2.756 2.73-0.004 1.591-1.265 2.717-2.732 2.734zM27.28 27.277c0.036-0.036 0.036-0.108 0.036-0.251 0-0.631 0-1.263 0.001-1.894 0.001-2.208 0.003-4.415-0.013-6.624-0.008-1.179-0.117-2.353-0.488-3.486-0.438-1.341-1.247-2.353-2.587-2.866-1.197-0.454-2.441-0.558-3.709-0.333-1.21 0.217-2.215 0.783-3 1.733-0.103 0.126-0.196 0.261-0.297 0.407-0.046 0.067-0.094 0.137-0.146 0.209-0.002-0.049-0.005-0.090-0.007-0.126-0.003-0.043-0.005-0.079-0.005-0.115 0-0.151-0.001-0.302-0.001-0.453-0.002-0.377-0.003-0.752 0.006-1.13 0.008-0.212-0.063-0.271-0.271-0.271-1.007 0.006-2.012 0.006-3.019 0.005-0.336-0-0.671-0.001-1.007-0.001-0.28 0-0.28 0.004-0.28 0.279 0 4.894 0 9.784-0.004 14.679 0 0.208 0.058 0.275 0.271 0.275 1.048-0.006 2.096-0.005 3.145-0.005 0.349 0 0.699 0 1.048 0 0.154 0 0.233 0 0.272-0.039s0.041-0.121 0.041-0.286c0-0.661-0.001-1.322-0.002-1.984-0.003-1.763-0.005-3.525 0.010-5.285 0.004-0.587 0.063-1.179 0.175-1.754 0.192-0.95 0.701-1.67 1.694-1.941 0.501-0.137 1.014-0.162 1.527-0.067 0.747 0.142 1.243 0.575 1.523 1.275 0.221 0.55 0.3 1.129 0.305 1.712 0.017 2.703 0.013 5.402 0.008 8.101v0.001c0 0.204 0.050 0.275 0.267 0.275 1.064-0.006 2.128-0.005 3.192-0.005 0.355 0 0.709 0.001 1.064 0.001 0.144 0 0.216 0 0.252-0.036z"></path>
</symbol>
<symbol id="icon-twitter" viewBox="0 0 32 32">
<path fill="#43bcee" style="fill: var(--color2, #43bcee)" d="M29.489 0c1.233 0 2.171 0.73 2.466 1.919 0.054 0.162 0.054 0.324 0.027 0.514v27.162c0 1.324-1.099 2.405-2.413 2.405h-26.969c-1.501 0-2.6-1.108-2.6-2.622v-26.73c0-1.568 1.072-2.649 2.627-2.649h26.862zM23.109 13.541c0-0.568 0.134-0.946 0.59-1.27 0.509-0.378 0.912-0.892 1.314-1.487-0.697 0.297-1.367 0.459-2.064 0.541 0.724-0.486 1.26-1.135 1.582-2.054-0.751 0.432-1.474 0.703-2.225 0.892-0.161 0.054-0.268 0.027-0.375-0.081-1.019-0.946-2.172-1.27-3.512-0.973-1.85 0.405-3.137 2.216-2.922 4.081 0.026 0.246 0.039 0.374-0.018 0.432-0.063 0.063-0.21 0.043-0.518 0.001-2.815-0.351-5.201-1.541-7.077-3.703-0.188-0.216-0.268-0.162-0.349 0.054-0.59 1.351-0.483 2.622 0.349 3.838 0.241 0.351 0.563 0.622 0.965 0.919-0.643 0-1.153-0.189-1.716-0.432 0.134 1.973 1.153 3.162 3.029 3.757-0.59 0.162-1.126 0.135-1.689 0.081 0.643 1.595 1.796 2.459 3.539 2.622-1.662 1.27-3.512 1.73-5.523 1.595 1.233 0.757 2.547 1.297 3.968 1.514 2.064 0.324 4.048 0.135 5.978-0.622 1.743-0.703 3.163-1.784 4.343-3.243 1.448-1.892 2.279-4.054 2.332-6.459z"></path>
</symbol>
<symbol id="icon-fb" viewBox="0 0 32 32">
<path d="M29 0h-26c-1.65 0-3 1.35-3 3v26c0 1.65 1.35 3 3 3h13v-14h-4v-4h4v-2c0-3.306 2.694-6 6-6h4v4h-4c-1.1 0-2 0.9-2 2v2h6l-1 4h-5v14h9c1.65 0 3-1.35 3-3v-26c0-1.65-1.35-3-3-3z"></path>
</symbol>
</defs>
</svg>
